<?xml version="1.0" standalone="no"?>
<!DOCTYPE svg PUBLIC "-//W3C//DTD SVG 20010904//EN"
 "http://www.w3.org/TR/2001/REC-SVG-20010904/DTD/svg10.dtd">
<svg version="1.0" xmlns="http://www.w3.org/2000/svg"
 width="1080.000000pt" height="1081.000000pt" viewBox="0 0 1080.000000 1081.000000"
 preserveAspectRatio="xMidYMid meet">

<g transform="translate(0.000000,1081.000000) scale(0.100000,-0.100000)"
fill="#000000" stroke="none">
<path d="M6160 6832 c-69 -34 -83 -102 -40 -200 l19 -43 -322 -432 c-178 -238
-333 -447 -346 -465 l-23 -32 263 2 262 3 210 381 209 382 62 -5 c97 -8 156
36 156 114 -1 40 -42 134 -79 181 -82 104 -273 163 -371 114z"/>
<path d="M7556 6344 c-31 -26 -56 -49 -56 -53 0 -3 14 -41 31 -84 90 -234 141
-514 141 -792 1 -367 -68 -674 -226 -1000 -279 -577 -790 -1012 -1395 -1190
-241 -71 -378 -89 -651 -90 -296 0 -495 32 -754 122 -116 39 -353 153 -441
210 l-61 40 -60 -52 -61 -51 73 -48 c293 -192 667 -323 1043 -366 158 -19 515
-8 670 20 846 150 1530 703 1847 1493 120 297 169 562 168 907 0 232 -13 353
-61 555 -34 145 -131 425 -146 425 -3 0 -30 -21 -61 -46z"/>
<path d="M5370 6085 c-294 -36 -517 -111 -614 -208 -35 -36 -42 -48 -41 -82 1
-111 133 -200 394 -266 179 -46 329 -62 566 -62 309 -1 542 35 760 118 11 4
-151 -164 -360 -374 -340 -342 -376 -380 -337 -367 24 9 121 32 215 51 204 43
314 78 436 140 101 50 119 71 173 199 60 140 80 245 81 416 1 144 0 158 -21
192 -38 61 -129 118 -264 164 l-68 23 -26 -45 c-15 -25 -27 -51 -28 -59 -1
-10 27 -25 83 -44 136 -48 187 -105 147 -166 -30 -46 -204 -110 -351 -130 -27
-4 -61 -14 -74 -23 -22 -13 -62 -14 -300 -9 -443 10 -693 57 -788 150 -57 54
-37 102 62 150 91 45 335 97 454 97 23 0 50 4 60 10 15 8 82 89 105 128 10 16
-119 15 -264 -3z"/>
<path d="M7387 5865 c-167 -399 -468 -710 -881 -910 -173 -84 -290 -123 -536
-180 -113 -26 -232 -58 -265 -70 -284 -106 -542 -328 -642 -552 -54 -123 -90
-332 -77 -447 l6 -58 48 6 c74 10 314 71 435 111 424 141 855 390 1176 682
110 101 310 315 397 425 96 124 217 302 270 399 88 162 37 18 -68 -191 -70
-140 -185 -330 -282 -466 -148 -209 -410 -488 -595 -635 -77 -61 -655 -448
-922 -618 l-144 -91 106 0 c288 0 648 86 920 219 867 425 1334 1376 1142 2327
-37 184 -33 181 -88 49z"/>
<path d="M5978 5563 c12 -2 30 -2 40 0 9 3 -1 5 -23 4 -22 0 -30 -2 -17 -4z"/>
<path d="M4605 4630 l-298 -298 52 -103 c114 -226 245 -372 442 -494 l74 -46
12 123 c28 274 131 500 335 731 34 38 57 72 52 76 -5 4 -45 32 -89 62 -44 30
-125 98 -180 151 l-101 97 -299 -299z"/>
<path d="M4030 4055 l-144 -145 34 -36 c64 -66 214 -187 320 -257 175 -117
473 -248 640 -282 41 -8 42 -10 -70 77 -123 95 -199 167 -284 268 -85 101
-255 352 -306 452 -19 38 -37 68 -40 68 -3 0 -70 -65 -150 -145z"/>
</g>
</svg>
